HIERARCHY
ROOT Pelvis
{
	OFFSET 0.000000 0.000000 0.000000
	CHANNELS 6 Xposition Yposition Zposition Xrotation Yrotation Zrotation
	JOINT LeftUpLeg_virtual
	{
		OFFSET 0.000000 0.000000 0.000000
		CHANNELS 3 Xrotation Yrotation Zrotation
		JOINT LeftUpLeg
		{
			OFFSET 18.735201 -5.666702 -4.541200
			CHANNELS 3 Xrotation Yrotation Zrotation
			JOINT LeftLeg
			{
				OFFSET -0.021200 -31.938179 0.493100
				CHANNELS 3 Xrotation Yrotation Zrotation
				JOINT LeftFoot
				{
					OFFSET 0.021200 -31.938179 -4.336299
					CHANNELS 3 Xrotation Yrotation Zrotation
					JOINT LeftToeBase
					{
						OFFSET 0.943001 -26.722000 15.023500
						CHANNELS 3 Xrotation Yrotation Zrotation
						End Site
						{
							OFFSET 0 0 0
						}
					}
				}
			}
		}
	}
	JOINT RightUpLeg_virtual
	{
		OFFSET 0.000000 0.000000 0.000000
		CHANNELS 3 Xrotation Yrotation Zrotation
		JOINT RightUpLeg
		{
			OFFSET -18.735201 -5.666702 -4.541200
			CHANNELS 3 Xrotation Yrotation Zrotation
			JOINT RightLeg
			{
				OFFSET 0.018946 -31.938133 0.493100
				CHANNELS 3 Xrotation Yrotation Zrotation
				JOINT RightFoot
				{
					OFFSET -0.018946 -31.938126 -4.336299
					CHANNELS 3 Xrotation Yrotation Zrotation
					JOINT RightToeBase
					{
						OFFSET -0.943001 -26.722004 15.023500
						CHANNELS 3 Xrotation Yrotation Zrotation
						End Site
						{
							OFFSET 0 0 0
						}
					}
				}
			}
		}
	}
	JOINT Hips_virtual
	{
		OFFSET 0.000000 0.000000 0.000000
		CHANNELS 3 Xrotation Yrotation Zrotation
		JOINT Hips
		{
			OFFSET -0.000000 -0.000000 -0.000000
			CHANNELS 3 Xrotation Yrotation Zrotation
			JOINT Spine
			{
				OFFSET 0.000000 10.199997 -0.299500
				CHANNELS 3 Xrotation Yrotation Zrotation
				JOINT Spine1
				{
					OFFSET 0.000000 11.900002 -1.516600
					CHANNELS 3 Xrotation Yrotation Zrotation
					JOINT Spine2
					{
						OFFSET 0.000000 13.600006 -2.842500
						CHANNELS 3 Xrotation Yrotation Zrotation
						JOINT Neck_virtual
						{
							OFFSET 0.000000 0.000000 0.000000
							CHANNELS 3 Xrotation Yrotation Zrotation
							JOINT Neck
							{
								OFFSET 0.000000 9.624100 -2.890100
								CHANNELS 3 Xrotation Yrotation Zrotation
								JOINT Head
								{
									OFFSET 0.000000 14.068802 -1.351900
									CHANNELS 3 Xrotation Yrotation Zrotation
									End Site
									{
										OFFSET 0 0 0
									}
								}
							}
						}
						JOINT LeftShoulder_virtual
						{
							OFFSET 0.000000 0.000000 0.000000
							CHANNELS 3 Xrotation Yrotation Zrotation
							JOINT LeftShoulder
							{
								OFFSET 15.263000 10.923401 -0.547700
								CHANNELS 3 Xrotation Yrotation Zrotation
								JOINT LeftArm
								{
									OFFSET 25.438599 -2.830597 -13.032500
									CHANNELS 3 Xrotation Yrotation Zrotation
									JOINT LeftForeArm
									{
										OFFSET 29.960503 0.000000 0.000000
										CHANNELS 3 Xrotation Yrotation Zrotation
										JOINT LeftHand
										{
											OFFSET 27.849251 0.000000 0.000000
											CHANNELS 3 Xrotation Yrotation Zrotation
											End Site
											{
												OFFSET 0 0 0
											}
										}
									}
								}
							}
						}
						JOINT RightShoulder_virtual
						{
							OFFSET 0.000000 0.000000 0.000000
							CHANNELS 3 Xrotation Yrotation Zrotation
							JOINT RightShoulder
							{
								OFFSET -15.263000 10.923401 -0.547700
								CHANNELS 3 Xrotation Yrotation Zrotation
								JOINT RightArm
								{
									OFFSET -25.438599 -2.830597 -13.032500
									CHANNELS 3 Xrotation Yrotation Zrotation
									JOINT RightForeArm
									{
										OFFSET -29.960503 0.000000 0.000000
										CHANNELS 3 Xrotation Yrotation Zrotation
										JOINT RightHand
										{
											OFFSET -27.849251 0.000000 0.000000
											CHANNELS 3 Xrotation Yrotation Zrotation
											End Site
											{
												OFFSET 0 0 0
											}
										}
									}
								}
							}
						}
					}
				}
			}
		}
	}
}
MOTION
Frames: 13
Frame Time: 0.03333333
20.956902 86.944473 6.738611 0.000000 0.000000 0.000000 6.207644 -57.422029 5.580441 -55.068318 -1.885088 22.715678 43.182563 -5.059105 -2.997704 -6.800171 -3.456561 -15.181917 0.000000 0.000000 0.000000 129.402210 -79.641495 123.082358 -28.628190 -35.595196 -26.862378 42.274250 -2.180067 2.456961 -8.880818 -6.614521 13.319813 0.000000 0.000000 0.000000 -8.699544 -63.028303 0.314981 10.591985 -41.321920 8.607134 10.613031 -3.144881 -1.672607 5.445335 -1.892601 -1.372908 0.000000 0.000000 0.000000 0.307964 -1.773633 -1.320724 -0.467944 1.276035 -0.878838 0.000000 0.000000 0.000000 -2.449242 -4.377384 -2.553766 -2.793885 -15.467593 -8.429198 -30.314814 3.880491 -54.109343 -7.093058 -30.319329 -14.801097 0.000000 0.000000 0.000000 -4.682147 -0.784658 -0.624416 -0.707798 6.698412 -2.004007 -0.233847 -8.468133 46.950188 -6.926783 55.842862 13.134610 0.000000 0.000000 0.000000 
21.019615 86.847900 6.070202 0.000000 0.000000 0.000000 6.747934 -60.305079 6.097709 -55.704130 -2.358508 22.733395 44.449529 -5.909122 -2.365500 -5.942828 -4.715151 -14.845027 0.000000 0.000000 0.000000 131.111970 -78.919475 125.150854 -28.817825 -35.972441 -26.423104 42.246349 -1.874852 2.175418 -8.962473 -6.174543 13.085821 0.000000 0.000000 0.000000 -8.728783 -63.696350 0.247268 11.487023 -41.547665 8.879785 10.528795 -2.947323 -1.759560 5.256660 -1.742446 -1.392718 0.000000 0.000000 0.000000 -0.049462 -1.394993 -1.394197 -0.609780 1.491588 -0.971916 0.000000 0.000000 0.000000 -2.911230 -4.055306 -2.605419 -2.923432 -14.861805 -8.393006 -31.068505 3.648514 -53.626445 -7.245232 -30.648497 -14.790804 0.000000 0.000000 0.000000 -5.087862 -0.513146 -0.690982 -0.803706 7.287340 -2.040007 1.020944 -8.276690 46.476091 -5.660726 55.262637 11.929616 0.000000 0.000000 0.000000 
21.076807 86.785034 5.473856 0.000000 0.000000 0.000000 7.558626 -63.082487 6.782361 -56.188404 -2.789792 22.734751 45.653251 -6.589668 -1.696340 -5.137606 -5.817580 -14.336413 0.000000 0.000000 0.000000 132.602153 -78.177430 126.994636 -28.992473 -36.364675 -25.969947 42.239150 -1.659350 1.920267 -9.012993 -5.834000 12.830656 0.000000 0.000000 0.000000 -8.788597 -64.305575 0.152153 12.292195 -41.716944 9.132646 10.466753 -2.757584 -1.876304 5.089758 -1.593106 -1.432595 0.000000 0.000000 0.000000 -0.309652 -1.038911 -1.428088 -0.710452 1.690224 -1.037359 0.000000 0.000000 0.000000 -3.346912 -3.734171 -2.663180 -3.052672 -14.258635 -8.372007 -31.841068 3.512092 -53.134323 -7.431763 -30.896938 -14.780236 0.000000 0.000000 0.000000 -5.470838 -0.234900 -0.765248 -0.903005 7.886638 -2.117977 2.255654 -8.144526 45.983494 -4.473892 54.637104 10.807655 0.000000 0.000000 0.000000 
21.066509 86.739693 4.794487 0.000000 0.000000 0.000000 8.379850 -65.358148 7.403542 -56.512954 -3.102722 22.677133 46.665615 -7.161746 -1.051409 -4.464085 -6.785580 -13.785213 0.000000 0.000000 0.000000 133.846955 -77.448055 128.623691 -29.215704 -36.737689 -25.500166 42.141734 -1.507961 1.685527 -9.126763 -5.572917 12.560358 0.000000 0.000000 0.000000 -8.796392 -64.902138 0.093584 13.218609 -41.879582 9.454905 10.439961 -2.578155 -2.005435 4.947343 -1.444891 -1.483629 0.000000 0.000000 0.000000 -0.625898 -0.688457 -1.613594 -0.845456 1.883042 -1.180088 0.000000 0.000000 0.000000 -3.746675 -3.400051 -2.721880 -3.174175 -13.614993 -8.352247 -32.648485 3.547216 -52.582228 -7.656315 -30.959219 -14.752555 0.000000 0.000000 0.000000 -5.818817 0.048968 -0.842613 -1.001059 8.492300 -2.230436 3.429520 -8.047781 45.517788 -3.402203 53.978514 9.811276 0.000000 0.000000 0.000000 
20.965952 86.664284 4.083248 0.000000 0.000000 0.000000 9.193469 -67.626973 8.027216 -56.836712 -3.421413 22.556705 47.495353 -7.623815 -0.459658 -3.913952 -7.605099 -13.231096 0.000000 0.000000 0.000000 134.905798 -76.729211 130.076868 -29.472307 -37.094706 -25.035201 41.983919 -1.376849 1.459773 -9.301001 -5.341490 12.287988 0.000000 0.000000 0.000000 -8.707488 -65.490197 0.116470 14.439858 -42.140802 10.087703 10.427764 -2.437912 -2.130735 4.823436 -1.313688 -1.534772 0.000000 0.000000 0.000000 -0.978211 -0.355787 -1.818231 -1.002755 2.065004 -1.325589 0.000000 0.000000 0.000000 -4.158544 -3.078032 -2.794230 -3.342346 -13.033708 -8.379256 -33.424927 3.590893 -52.075531 -7.873404 -30.967511 -14.719976 0.000000 0.000000 0.000000 -6.134968 0.327474 -0.928682 -1.096776 9.078113 -2.376697 4.548326 -8.062187 45.131909 -2.462250 53.261262 8.970467 0.000000 0.000000 0.000000 
20.801685 86.579369 3.389339 0.000000 0.000000 0.000000 10.291074 -69.905975 8.884546 -57.079293 -3.742081 22.403572 48.205959 -7.966695 0.047552 -3.438706 -8.253605 -12.717824 0.000000 0.000000 0.000000 135.947703 -75.995649 131.509227 -29.761009 -37.450890 -24.603134 41.869329 -1.252730 1.235000 -9.455020 -5.115391 12.012763 0.000000 0.000000 0.000000 -8.509327 -66.035867 0.230663 15.850251 -42.352999 10.982861 10.441555 -2.325861 -2.228314 4.721865 -1.194736 -1.574791 0.000000 0.000000 0.000000 -1.246206 -0.036204 -1.904358 -1.131937 2.234802 -1.400979 0.000000 0.000000 0.000000 -4.530892 -2.767728 -2.876092 -3.509227 -12.514745 -8.437660 -34.084625 3.603059 -51.647152 -8.068671 -30.967057 -14.699966 0.000000 0.000000 0.000000 -6.396368 0.605093 -1.021261 -1.171745 9.649590 -2.568814 5.691190 -8.129669 44.741864 -1.567509 52.508234 8.193429 0.000000 0.000000 0.000000 
20.594086 86.531807 2.654692 0.000000 0.000000 0.000000 11.621536 -72.091206 10.019169 -57.246769 -4.089448 22.245211 48.715744 -8.199624 0.459335 -3.094786 -8.729336 -12.258981 0.000000 0.000000 0.000000 137.044740 -75.238905 132.965287 -30.065437 -37.807033 -24.228418 41.789754 -1.114941 1.029030 -9.596786 -4.884745 11.779199 0.000000 0.000000 0.000000 -8.171558 -66.564906 0.454712 17.463004 -42.595020 12.126459 10.468721 -2.223370 -2.328265 4.634234 -1.078467 -1.620123 0.000000 0.000000 0.000000 -1.476689 0.292364 -2.036917 -1.249515 2.407294 -1.496676 0.000000 0.000000 0.000000 -4.845396 -2.471041 -2.938337 -3.644615 -12.075493 -8.408922 -34.695336 3.571139 -51.211382 -8.247657 -30.993537 -14.657494 0.000000 0.000000 0.000000 -6.608643 0.884849 -1.112543 -1.230748 10.231103 -2.773197 6.755512 -8.235089 44.329926 -0.749139 51.695830 7.488752 0.000000 0.000000 0.000000 
20.332256 86.511139 1.853785 0.000000 0.000000 0.000000 13.046956 -74.146553 11.302611 -57.380952 -4.448778 22.059416 48.991820 -8.340054 0.764396 -2.898312 -9.049102 -11.880730 0.000000 0.000000 0.000000 138.157843 -74.498472 134.361405 -30.372499 -38.137427 -23.971640 41.683678 -0.913791 0.859524 -9.783030 -4.615627 11.650780 0.000000 0.000000 0.000000 -7.762268 -67.052432 0.731254 18.999095 -42.962880 13.216875 10.464459 -2.103471 -2.428772 4.537083 -0.953832 -1.665697 0.000000 0.000000 0.000000 -1.705589 0.630622 -2.175682 -1.371533 2.579611 -1.592478 0.000000 0.000000 0.000000 -5.122849 -2.168493 -2.992827 -3.762311 -11.632359 -8.335594 -35.176161 3.619466 -50.768222 -8.391236 -30.933889 -14.609327 0.000000 0.000000 0.000000 -6.803138 1.154314 -1.183442 -1.308552 10.751390 -2.911804 7.688717 -8.478079 43.919670 -0.051401 50.704521 6.886233 0.000000 0.000000 0.000000 
20.022671 86.488037 1.051834 0.000000 0.000000 0.000000 14.911886 -76.778252 13.218077 -57.633225 -5.036084 21.780322 49.063957 -8.493662 1.014738 -2.870916 -9.337776 -11.579584 0.000000 0.000000 0.000000 139.223175 -73.792209 135.697554 -30.735325 -38.431545 -23.783036 41.633906 -0.687352 0.712135 -9.932845 -4.331230 11.578919 0.000000 0.000000 0.000000 -7.352805 -67.485588 1.007850 20.527177 -43.392697 14.326940 10.501535 -1.966909 -2.544394 4.470076 -0.819761 -1.722407 0.000000 0.000000 0.000000 -1.906350 0.959350 -2.280525 -1.485415 2.737455 -1.661746 0.000000 0.000000 0.000000 -5.350363 -1.860583 -3.050807 -3.856473 -11.198673 -8.271258 -35.547344 3.716599 -50.399993 -8.509155 -30.835575 -14.560421 0.000000 0.000000 0.000000 -6.963446 1.427685 -1.247476 -1.383472 11.267567 -3.004097 8.591752 -8.827088 43.485574 0.598102 49.518414 6.329790 0.000000 0.000000 0.000000 
19.630836 86.493813 0.252010 0.000000 0.000000 0.000000 15.965376 -78.703437 14.394518 -57.922053 -5.491678 21.459995 48.644713 -8.515587 1.069667 -3.160294 -9.374160 -11.440219 0.000000 0.000000 0.000000 139.744933 -73.213549 136.414806 -30.948953 -38.650111 -23.569253 41.702724 -0.432299 0.577716 -9.996084 -4.019126 11.553270 0.000000 0.000000 0.000000 -6.942763 -67.862888 1.289973 22.087782 -43.815916 15.482849 10.580988 -1.792497 -2.651979 4.433007 -0.667055 -1.776800 0.000000 0.000000 0.000000 -2.063520 1.290216 -2.410766 -1.585841 2.883873 -1.738827 0.000000 0.000000 0.000000 -5.540300 -1.528195 -3.110189 -3.930667 -10.723791 -8.210386 -35.848391 3.970185 -50.096627 -8.658722 -30.642575 -14.544060 0.000000 0.000000 0.000000 -7.071779 1.725614 -1.318611 -1.435572 11.833870 -3.120360 9.394422 -9.176604 43.059807 1.169101 48.340725 5.848065 0.000000 0.000000 0.000000 
19.138985 86.435532 -0.481573 0.000000 0.000000 0.000000 18.631008 -80.334902 16.992008 -57.959845 -5.851017 21.281572 48.425778 -8.359051 1.019604 -3.266239 -9.193452 -11.343744 0.000000 0.000000 0.000000 140.085732 -72.748871 136.899257 -31.136770 -38.806918 -23.413016 41.775930 -0.143582 0.486087 -10.060506 -3.698749 11.622957 0.000000 0.000000 0.000000 -6.626653 -68.153786 1.490180 23.516164 -44.534097 16.750144 10.646269 -1.626813 -2.750146 4.394250 -0.519520 -1.827606 0.000000 0.000000 0.000000 -2.235868 1.597488 -2.570234 -1.690334 3.011719 -1.826090 0.000000 0.000000 0.000000 -5.718336 -1.194242 -3.157755 -4.008119 -10.282131 -8.094242 -36.185328 4.332078 -49.838364 -8.816308 -30.322352 -14.538479 0.000000 0.000000 0.000000 -7.203858 2.014241 -1.374937 -1.531783 12.371304 -3.148707 9.984711 -9.700322 42.639949 1.590084 46.938064 5.465685 0.000000 0.000000 0.000000 
18.595366 86.405434 -1.124954 0.000000 0.000000 0.000000 22.049031 -81.922457 20.421832 -58.032040 -6.253929 21.105121 48.069707 -8.150164 0.892430 -3.481173 -8.908559 -11.322824 0.000000 0.000000 0.000000 140.433798 -72.314717 137.322893 -31.267390 -38.947494 -23.321199 41.908005 0.188044 0.423189 -10.080342 -3.349654 11.773469 0.000000 0.000000 0.000000 -6.313698 -68.430163 1.687622 24.917500 -45.582408 18.211549 10.743976 -1.442418 -2.835641 4.379281 -0.363689 -1.872789 0.000000 0.000000 0.000000 -2.301333 1.894677 -2.677527 -1.747760 3.125968 -1.880178 0.000000 0.000000 0.000000 -5.853421 -0.858339 -3.201716 -4.061041 -9.847536 -7.966748 -36.412811 4.765526 -49.642259 -8.954190 -29.939110 -14.532921 0.000000 0.000000 0.000000 -7.294380 2.310738 -1.425776 -1.614948 12.935843 -3.134453 10.421714 -10.153962 42.208568 1.937771 45.615678 5.131545 0.000000 0.000000 0.000000 
18.011127 86.356537 -1.740040 0.000000 0.000000 0.000000 25.878053 -83.472227 24.389525 -58.170126 -6.718420 20.846195 47.421699 -8.012120 0.643420 -3.927555 -8.615033 -11.524796 0.000000 0.000000 0.000000 140.901175 -71.912220 137.799094 -31.374812 -39.070997 -23.320298 42.068918 0.548562 0.381753 -10.085656 -2.984758 11.982108 0.000000 0.000000 0.000000 -6.040733 -68.695440 1.863438 26.292612 -46.753184 19.789660 10.835196 -1.208953 -2.916081 4.366828 -0.185926 -1.915913 0.000000 0.000000 0.000000 -2.316200 2.189920 -2.758249 -1.776590 3.229272 -1.913783 0.000000 0.000000 0.000000 -5.983652 -0.510405 -3.237222 -4.117461 -9.392955 -7.822446 -36.651632 5.343445 -49.519322 -9.107227 -29.507756 -14.540557 0.000000 0.000000 0.000000 -7.368132 2.617215 -1.476496 -1.689809 13.522335 -3.088226 10.710142 -10.603023 41.781237 2.214097 44.290160 4.841502 0.000000 0.000000 0.000000 
